<?xml version="1.0" encoding="UTF-8"?>
<svg fill="none" viewBox="0 0 183 183" xmlns="http://www.w3.org/2000/svg">
<g clip-path="url(#a)" fill="#0EBF63">
<path d="m135.64 164.93c-16.311 9.846-34.968 13.932-53.952 11.823-22.853-2.542-43.348-13.831-57.709-31.788-14.363-17.957-20.872-40.431-18.33-63.283 5.2467-47.175 47.895-81.283 95.07-76.04 19.471 2.1659 37.779 11 51.549 24.876 13.57 13.675 22.257 31.68 24.458 50.7l5.073-0.5865c-2.333-20.152-11.533-39.228-25.907-53.711-14.589-14.7-33.983-24.059-54.608-26.353-49.97-5.5597-95.152 30.576-100.71 80.55-2.6931 24.208 4.203 48.015 19.416 67.038 15.214 19.021 36.925 30.979 61.133 33.672 3.4467 0.384 6.8799 0.574 10.296 0.574 16.513 0 32.541-4.456 46.859-13.1 16.73-10.098 29.992-25.568 37.344-43.56l-4.728-1.931c-6.939 16.982-19.459 31.584-35.254 41.12z"/>
<path d="m41.57 65.47v-3.3486h-11.996v20.704h11.996v-3.3495h-7.6804v-5.4748h6.8015v-3.3486h-6.8015v-5.182h7.6804z"/>
<path d="m52.163 79.3c-1.1126 0-2.1019-0.4256-2.9401-1.2641-0.8384-0.8367-1.2626-1.9987-1.2626-3.4526 0-1.4529 0.4201-2.6049 1.2485-3.4236 0.8286-0.8186 1.8177-1.2334 2.9401-1.2334s2.117 0.4193 2.9553 1.2488c0.8379 0.8286 1.2625 1.9851 1.2625 3.4372 0 1.4538-0.4246 2.6104-1.2625 3.438-0.8383 0.8295-1.8284 1.2497-2.9412 1.2497zm4.2037 1.0147v2.5101h4.2867v-16.424h-4.2867v2.3123c-1.1789-1.6897-2.8632-2.5454-5.0092-2.5454-2.2451 0-4.1208 0.7942-5.5784 2.3592-1.4553 1.5641-2.1937 3.6007-2.1937 6.0566 0 2.456 0.743 4.5043 2.2085 6.0856 1.4676 1.5867 3.3294 2.3899 5.5344 2.3899 2.1134 0 3.8076-0.9225 5.0384-2.7441z"/>
<path d="m71.764 79.156c-0.45 0.3289-1.0536 0.4952-1.7929 0.4952-1.5432 0-2.3667-0.6443-2.5184-1.9707l-0.0088-0.0813h-4.4003l0.0059 0.0975c0.1193 1.7204 0.8129 3.0595 2.0606 3.9812 1.2413 0.9162 2.8519 1.3806 4.7875 1.3806 1.9363 0 3.5529-0.4698 4.8037-1.396 1.2594-0.9325 1.8982-2.1604 1.8982-3.6495 0-1.1331-0.3342-2.0565-0.9924-2.746-0.6541-0.6831-1.4518-1.1647-2.3712-1.4312-0.9043-0.2629-1.8291-0.4852-2.7495-0.6605-0.9071-0.1744-1.6883-0.4184-2.3225-0.7256-0.6159-0.2991-0.9159-0.6939-0.9159-1.2081 0-0.5213 0.1987-0.9189 0.6081-1.2162 0.4119-0.2999 1.0049-0.4517 1.7637-0.4517 1.5213 0 2.3165 0.6442 2.4302 1.9688l7e-3 0.0832h4.4007l-0.0046-0.0958c-0.0794-1.6409-0.7324-2.9601-1.9395-3.9206-1.2036-0.9578-2.8202-1.4421-4.8062-1.4421-1.9858 0-3.603 0.4897-4.8059 1.4556-1.2095 0.9714-1.8227 2.1894-1.8227 3.6188 0 1.0753 0.3343 1.9599 0.9943 2.6294 0.6519 0.6633 1.4496 1.1295 2.3711 1.3861 0.9072 0.2548 1.8319 0.4726 2.7479 0.647 0.9071 0.1744 1.6878 0.4228 2.3213 0.7391 0.6166 0.309 0.917 0.7129 0.917 1.2379 0 0.5322-0.2181 0.9478-0.6664 1.2749z"/>
<path d="m84.513 90.504 10.166-23.976 0.0543-0.1274h-4.5098l-4.3026 11.378-4.0494-11.316-0.0219-0.0615h-4.8302l6.3963 16.038-2.3119 5.4693c-0.486 0.0994-0.9195 0.3334-1.289 0.703-0.504 0.5033-0.7599 1.1267-0.7599 1.8514 0 0.7255 0.2559 1.3499 0.7599 1.8532 0.503 0.5043 1.122 0.7598 1.8378 0.7598s1.3342-0.2555 1.8383-0.7598c0.4941-0.4943 0.7454-1.1042 0.756-1.8117h0.2664z"/>
<path d="m35.01 103.74 2.7749-8.1576 2.8032 8.1576h-5.5781zm-7.0284 7.188h4.563l1.3189-3.84h7.8427l1.3194 3.84h4.5609l-7.2543-20.642-0.0208-0.0605h-5.0244l-7.2624 20.581-0.043 0.121z"/>
<path d="m57.137 107.26c-0.4511 0.329-1.0546 0.495-1.793 0.495-1.5435 0-2.3676-0.645-2.5194-1.97l-0.0089-0.082h-4.4003l0.0071 0.098c0.119 1.719 0.8118 3.059 2.0595 3.98 1.2414 0.917 2.8526 1.382 4.7879 1.382 1.9366 0 3.5521-0.47 4.8037-1.396 1.259-0.932 1.8979-2.161 1.8979-3.649 0-1.133-0.3336-2.058-0.993-2.746-0.6536-0.683-1.4513-1.165-2.3707-1.431-0.9036-0.263-1.829-0.485-2.7489-0.663-0.9067-0.173-1.6885-0.417-2.3221-0.725-0.6169-0.299-0.9159-0.6931-0.9159-1.2063 0-0.5224 0.1984-0.9198 0.6071-1.2163 0.4119-0.3011 1.0059-0.4528 1.7637-0.4528 1.5219 0 2.3165 0.6445 2.4301 1.9692l0.0071 0.0829h4.4006l-0.0046-0.095c-0.0793-1.6427-0.7312-2.961-1.9394-3.9224-1.2036-0.9568-2.8201-1.4418-4.8063-1.4418-1.9853 0-3.6019 0.4906-4.8054 1.4574-1.2089 0.9713-1.8223 2.1882-1.8223 3.6188 0 1.0743 0.3346 1.9593 0.9935 2.6283 0.6529 0.662 1.4506 1.13 2.3712 1.386 0.9078 0.254 1.8318 0.472 2.7474 0.647 0.9074 0.173 1.6882 0.422 2.3218 0.74 0.6169 0.308 0.9169 0.713 0.9169 1.237 0 0.531-0.217 0.948-0.6653 1.275z"/>
<path d="m72.204 107.26c-0.4501 0.329-1.0536 0.495-1.7931 0.495-1.5431 0-2.3665-0.645-2.5183-1.97l-0.0089-0.082h-4.4006l0.0063 0.098c0.1194 1.719 0.813 3.059 2.0602 3.98 1.2417 0.917 2.8523 1.382 4.7882 1.382 1.9357 0 3.5526-0.47 4.8038-1.396 1.259-0.932 1.8978-2.161 1.8978-3.649 0-1.133-0.3346-2.058-0.9928-2.746-0.6537-0.683-1.4513-1.165-2.3708-1.431-0.9046-0.263-1.829-0.485-2.7496-0.663-0.907-0.173-1.6878-0.417-2.3224-0.725-0.6159-0.299-0.916-0.6931-0.916-1.2063 0-0.5224 0.1988-0.9198 0.6082-1.2163 0.4119-0.3011 1.0049-0.4528 1.7637-0.4528 1.5213 0 2.3161 0.6445 2.4302 1.9692l7e-3 0.0829h4.4003l-0.0042-0.095c-0.0795-1.6427-0.7324-2.961-1.9395-3.9224-1.2036-0.9568-2.8201-1.4418-4.8066-1.4418-1.985 0-3.6026 0.4906-4.8052 1.4574-1.2098 0.9713-1.8229 2.1882-1.8229 3.6188 0 1.0743 0.3342 1.9593 0.9943 2.6283 0.6522 0.662 1.4498 1.13 2.3711 1.386 0.9071 0.254 1.8315 0.472 2.7478 0.647 0.9067 0.173 1.6878 0.422 2.3213 0.74 0.617 0.308 0.9171 0.713 0.9171 1.237 0 0.531-0.2182 0.948-0.6664 1.275z"/>
<path d="m79.494 110.93h4.3167v-16.423h-4.3167v16.423z"/>
<path d="m94.922 107.26c-0.4509 0.329-1.0535 0.495-1.7927 0.495-1.5432 0-2.3673-0.645-2.5191-1.97l-9e-3 -0.082h-4.3997l6e-3 0.098c0.1193 1.719 0.8118 3.059 2.0595 3.98 1.2417 0.917 2.8528 1.382 4.7892 1.382 1.9354 0 3.551-0.47 4.8033-1.396 1.2596-0.932 1.8975-2.161 1.8975-3.649 0-1.133-0.3343-2.058-0.9921-2.746-0.6542-0.683-1.452-1.165-2.3719-1.431-0.9035-0.263-1.8288-0.485-2.7486-0.663-0.9072-0.173-1.6879-0.417-2.3222-0.725-0.6162-0.299-0.9162-0.6931-0.9162-1.2063 0-0.5224 0.1988-0.9198 0.6072-1.2163 0.412-0.3011 1.0057-0.4528 1.7638-0.4528 1.5225 0 2.3167 0.6445 2.4297 1.9692l0.0072 0.0829h4.4013l-0.0054-0.095c-0.0787-1.6427-0.731-2.961-1.9391-3.9224-1.2027-0.9568-2.8201-1.4418-4.8052-1.4418-1.9869 0-3.6032 0.4906-4.8067 1.4574-1.2089 0.9713-1.8221 2.1882-1.8221 3.6188 0 1.0743 0.3344 1.9593 0.9937 2.6283 0.6525 0.662 1.4506 1.13 2.3708 1.386 0.9078 0.254 1.833 0.472 2.7484 0.647 0.9071 0.173 1.6878 0.422 2.3221 0.74 0.6163 0.308 0.9163 0.713 0.9163 1.237 0 0.531-0.2178 0.948-0.666 1.275z"/>
<path d="m104.06 109.76c0.913 0.772 2.224 1.165 3.9 1.165h2.7v-3.641h-2.055c-0.601 0-1.023-0.106-1.258-0.315-0.233-0.205-0.351-0.561-0.351-1.06v-7.8529h3.635v-3.5539h-3.635v-4.0154h-4.315v4.0154h-1.73v3.5539h1.73v7.8529c0 1.778 0.464 3.074 1.379 3.851z"/>
<path d="m120.26 107.4c-1.112 0-2.102-0.425-2.94-1.264-0.839-0.837-1.263-1.999-1.263-3.453 0-1.453 0.421-2.604 1.248-3.4225 0.829-0.8207 1.818-1.2343 2.94-1.2343 1.124 0 2.117 0.4193 2.956 1.2477 0.839 0.8291 1.262 1.9861 1.262 3.4391s-0.423 2.61-1.262 3.438c-0.839 0.829-1.829 1.249-2.941 1.249zm8.491 3.524v-16.423h-4.288v2.3122c-1.178-1.6896-2.863-2.5469-5.009-2.5469-2.245 0-4.12 0.7942-5.578 2.3599-1.455 1.5632-2.194 3.6016-2.194 6.0566 0 2.456 0.744 4.503 2.209 6.087 1.467 1.585 3.329 2.389 5.534 2.389 2.113 0 3.808-0.924 5.038-2.745v2.51h4.288z"/>
<path d="m147.74 110.93v-9.648c0-2.1835-0.601-3.9158-1.785-5.1484-1.185-1.2343-2.736-1.8611-4.609-1.8611-2.227 0-3.891 0.8203-4.951 2.4386v-2.2039h-4.316v16.423h4.316v-9.062c0-1.239 0.322-2.1995 0.956-2.8528 0.634-0.6523 1.504-0.983 2.588-0.983 1.083 0 1.947 0.3307 2.572 0.983 0.625 0.6533 0.942 1.6138 0.942 2.8528v9.062h4.287z"/>
<path d="m157.88 97.942c1.555 0 2.564 0.6428 3.081 1.9646l0.021 0.0578h4.637l-0.029-0.1139c-0.454-1.7719-1.363-3.1597-2.703-4.1258-1.34-0.9649-3.024-1.4545-5.007-1.4545-2.38 0-4.346 0.7797-5.841 2.3147-1.495 1.5343-2.254 3.5968-2.254 6.1318 0 2.534 0.759 4.596 2.254 6.132 1.496 1.535 3.461 2.314 5.841 2.314 1.945 0 3.616-0.51 4.964-1.514 1.35-1.004 2.272-2.383 2.745-4.094l0.031-0.115h-4.637l-0.022 0.057c-0.537 1.343-1.545 1.994-3.081 1.994-1.158 0-2.075-0.426-2.728-1.268-0.658-0.851-0.992-2.03-0.992-3.506 0-1.477 0.334-2.657 0.992-3.5059 0.653-0.8421 1.57-1.2688 2.728-1.2688z"/>
<path d="m178.39 101.31h-7.478c0.146-1.001 0.55-1.8149 1.203-2.4213 0.673-0.6262 1.524-0.9424 2.531-0.9424 1.009 0 1.881 0.3162 2.593 0.9445 0.689 0.6061 1.076 1.4192 1.151 2.4192zm2.154-4.7956c-1.535-1.4863-3.525-2.2399-5.912-2.2399-2.388 0-4.363 0.774-5.869 2.2995-1.505 1.5251-2.269 3.584-2.269 6.117 0 2.534 0.758 4.603 2.254 6.146 1.494 1.545 3.46 2.33 5.84 2.33 1.926 0 3.59-0.499 4.948-1.483 1.359-0.985 2.289-2.273 2.761-3.829l0.035-0.118h-4.631l-0.026 0.045c-0.663 1.137-1.701 1.713-3.087 1.713-1.026 0-1.883-0.316-2.546-0.942-0.642-0.606-1.025-1.411-1.134-2.393h11.82l0.011-0.077c0.078-0.491 0.119-1.029 0.119-1.597 0-2.476-0.779-4.4853-2.314-5.9716z"/>
</g>
<defs>
<clipPath id="a">
<rect width="183" height="183" fill="#fff"/>
</clipPath>
</defs>
</svg>
